<?xml version="1.0" encoding="UTF-8" standalone="no"?><!DOCTYPE svg PUBLIC "-//W3C//DTD SVG 1.1//EN" "http://www.w3.org/Graphics/SVG/1.1/DTD/svg11.dtd"><svg width="100%" height="100%" viewBox="0 0 8900 2947" version="1.1" xmlns="http://www.w3.org/2000/svg" xmlns:xlink="http://www.w3.org/1999/xlink" xml:space="preserve" xmlns:serif="http://www.serif.com/" style="fill-rule:evenodd;clip-rule:evenodd;stroke-linejoin:round;stroke-miterlimit:2;"><g id="with_transparent"><g transform="matrix(2920.62,0,0,2920.62,8997.04,2496.67)"></g><text x="3529.64px" y="2496.67px" style="font-family:'BebasNeueBook', 'Bebas Neue';font-size:2920.62px;fill:#fff;">FIZJO+</text><path d="M1963.31,2679.39l-0,266.403l-973.844,-0l-0,-992.45l-989.462,-0l0,-975.65l569.905,-0c92.841,-311.407 291.394,-423.267 291.394,-423.267c0,-0 -17.32,20.923 -40.052,58.256c-116.512,188.43 -106.503,365.011 -106.503,365.011c0.791,149.333 57.148,323.273 236.606,496.225c0,-0 -3.209,-131.38 180.347,-277.647c0,-0 -164.915,-50.482 -250.099,-218.578l107.864,-0l-0,-975.65l973.844,0.851l-0,717.163c365.049,-226.338 217.704,-620.133 217.704,-620.133c18.788,35.936 33.797,70.966 45.469,105.037c23.216,71.043 43.233,172.514 25.725,286.722c-31.122,182.524 -148.077,316.052 -223.298,385.271c-20.192,18.051 -42.021,35.969 -65.6,53.695c-97.698,73.448 -225.434,143.605 -391.249,206.327c-1333.4,504.378 385.435,1542.41 391.249,1542.41Zm459.233,-1701.7l532.542,-0l0.661,975.65l-992.436,-0l-0,725.969c-5.752,-9.085 -1011.78,-808.673 -322.862,-1144.61c359.205,-175.159 662.2,-331.519 782.095,-557.01Zm-944.668,-524.583c-150.377,-0 -272.464,122.087 -272.464,272.464c0,150.377 122.087,272.463 272.464,272.463c150.377,0 272.464,-122.086 272.464,-272.463c-0,-150.377 -122.087,-272.464 -272.464,-272.464Z" style="fill:#fff;"/></g></svg>