<?xml version="1.0" encoding="UTF-8" standalone="no"?>
<!DOCTYPE svg PUBLIC "-//W3C//DTD SVG 1.1//EN" "http://www.w3.org/Graphics/SVG/1.1/DTD/svg11.dtd">
<svg width="100%" height="100%" viewBox="0 0 413 609" version="1.1" xmlns="http://www.w3.org/2000/svg" xmlns:xlink="http://www.w3.org/1999/xlink" xml:space="preserve" xmlns:serif="http://www.serif.com/" style="fill-rule:evenodd;clip-rule:evenodd;stroke-linejoin:round;stroke-miterlimit:2;">
    <path d="M360.3,608.19L167.18,608.19C138.54,608.19 115.24,584.89 115.24,556.25L115.24,51.94C115.24,23.3 138.54,0 167.18,0L360.3,0C388.94,0 412.24,23.3 412.24,51.94L412.24,556.25C412.24,584.89 388.94,608.19 360.3,608.19ZM167.18,2C139.64,2 117.24,24.4 117.24,51.94L117.24,556.25C117.24,583.79 139.64,606.19 167.18,606.19L360.3,606.19C387.84,606.19 410.24,583.79 410.24,556.25L410.24,51.94C410.24,24.4 387.84,2 360.3,2L167.18,2Z" style="fill:rgb(222,223,224);fill-rule:nonzero;"/>
    <path d="M291.09,47.36L236.4,47.36C229.18,47.36 223.31,41.49 223.31,34.27C223.31,27.05 229.18,21.18 236.4,21.18L291.09,21.18C298.31,21.18 304.18,27.05 304.18,34.27C304.18,41.49 298.31,47.36 291.09,47.36Z" style="fill:rgb(218,219,220);fill-rule:nonzero;"/>
    <path d="M215.08,607.14C215.08,607.68 214.64,608.12 214.1,608.12L0.98,608.12C0.44,608.12 0,607.68 0,607.14C0,606.6 0.44,606.16 0.98,606.16L214.1,606.16C214.64,606.16 215.08,606.6 215.08,607.14L215.08,607.14L215.08,607.14Z" style="fill:rgb(63,61,88);fill-rule:nonzero;"/>
    <path d="M119.16,304.11L138.81,310.57L138.81,282.29L120.98,282.29L119.16,304.11Z" style="fill:rgb(246,170,174);fill-rule:nonzero;"/>
    <circle cx="136.37" cy="270.54" r="19.58" style="fill:rgb(246,170,174);"/>
    <path d="M131.39,272.07L134.09,275.35L138.97,266.81C138.97,266.81 145.2,267.13 145.2,262.51C145.2,257.89 150.92,257.76 150.92,257.76C150.92,257.76 159.01,243.63 142.25,247.35C142.25,247.35 130.62,239.38 124.84,246.19C124.84,246.19 107.11,255.12 112.18,270.67L120.61,286.69L122.52,283.06C122.52,283.06 121.36,267.83 131.39,272.07L131.39,272.07Z" style="fill:rgb(47,46,67);fill-rule:nonzero;"/>
    <rect x="113.75" y="572.09" width="15.82" height="22.44" style="fill:rgb(246,170,174);"/>
    <path d="M127.83,607.39C125.12,607.64 111.59,608.7 110.91,605.6C110.29,602.75 111.2,599.77 111.33,599.37C112.63,586.43 113.11,586.28 113.4,586.19C113.86,586.06 115.21,586.69 117.39,588.1L117.53,588.19L117.56,588.35C117.6,588.55 118.57,593.3 123.15,592.58C126.29,592.08 127.31,591.39 127.64,591.05C127.37,590.93 127.04,590.72 126.81,590.35C126.47,589.82 126.41,589.14 126.63,588.33C127.22,586.18 128.99,583 129.06,582.87L129.26,582.51L147.24,594.64L158.34,597.81C159.18,598.05 159.85,598.65 160.19,599.45C160.66,600.57 160.37,601.87 159.47,602.68C157.45,604.49 153.45,607.6 149.24,607.98C148.12,608.08 146.64,608.12 144.98,608.12C138.03,608.12 127.9,607.4 127.82,607.39L127.83,607.39L127.83,607.39L127.83,607.39Z" style="fill:rgb(47,46,67);fill-rule:nonzero;"/>
    <g transform="matrix(0.637424,-0.770513,0.770513,0.637424,-396.678,261.171)">
        <rect x="67.95" y="544.168" width="22.44" height="15.82" style="fill:rgb(246,170,174);"/>
    </g>
    <path d="M68.59,574.58C66.35,573.04 55.24,565.24 56.69,562.42C58.03,559.83 60.63,558.12 60.99,557.89C70.24,548.75 70.71,548.94 70.99,549.06C71.43,549.25 72.06,550.6 72.85,553.07L72.9,553.22L72.82,553.36C72.72,553.54 70.44,557.82 74.43,560.18C77.17,561.8 78.4,561.91 78.86,561.86C78.73,561.6 78.61,561.22 78.66,560.79C78.73,560.17 79.12,559.6 79.82,559.12C81.65,557.84 85.03,556.52 85.18,556.46L85.56,556.31L91.68,577.12L98.21,586.64C98.7,587.36 98.84,588.25 98.59,589.09C98.24,590.25 97.19,591.07 95.97,591.12C93.26,591.23 88.2,591.07 84.71,588.68C83.79,588.05 82.62,587.14 81.34,586.08C75.99,581.65 68.64,574.64 68.58,574.58L68.59,574.58L68.59,574.58Z" style="fill:rgb(47,46,67);fill-rule:nonzero;"/>
    <path d="M155.74,399.02L101.48,399.02L113.54,578.38L131.63,578.38L155.75,399.02L155.74,399.02Z" style="fill:rgb(47,46,67);fill-rule:nonzero;"/>
    <path d="M144.69,408.9L155.74,399.02L150.21,497.66L88.41,556.44L73.01,543.71L109.01,496.99L144.69,408.9Z" style="fill:rgb(47,46,67);fill-rule:nonzero;"/>
    <path d="M144.69,293.51L117.89,289.16L109.57,303.71C98.99,322.21 94.68,343.63 97.27,364.78L101.48,399.03L155.74,399.03L144.69,293.52L144.69,293.51L144.69,293.51Z" style="fill:rgb(218,219,220);fill-rule:nonzero;"/>
    <path id="uuid-a048c2b9-908a-4c55-bce2-85345ea0567b-269" d="M122.93,431.31C124.04,436.84 121.97,441.89 118.32,442.59C114.66,443.28 110.8,439.36 109.69,433.82C109.22,431.61 109.3,429.33 109.93,427.16L105.53,403.65L117.03,401.86L120.14,425.23C121.56,427.02 122.52,429.1 122.93,431.32L122.93,431.31Z" style="fill:rgb(246,170,174);fill-rule:nonzero;"/>
    <path d="M108.94,424.94L92.05,372.76L92.05,372.68L98.43,318.95C99.41,310.72 106.39,304.52 114.67,304.52C119.74,304.52 124.44,306.81 127.56,310.81C130.68,314.81 131.77,319.92 130.54,324.85L119.27,369.92L121.96,421.07L108.93,424.94L108.94,424.94L108.94,424.94Z" style="fill:rgb(218,219,220);fill-rule:nonzero;"/>
    <g id="phone-call-icon.svg" transform="matrix(1.19595,0,0,1.19595,279.599,328.745)">
        <g transform="matrix(1,0,0,1,-61.44,-61.135)">
            <clipPath id="_clip1">
                <rect x="0" y="0" width="122.88" height="122.27"/>
            </clipPath>
            <g clip-path="url(#_clip1)">
                <g>
                    <path d="M33.84,50.25C37.97,57.7 42.73,64.85 48.91,71.37C55.11,77.93 62.82,83.9 72.8,89C73.54,89.36 74.24,89.36 74.87,89.11C75.82,88.75 76.79,87.96 77.74,87.01C78.48,86.27 79.4,85.09 80.36,83.8C84.2,78.75 88.95,72.48 95.66,75.62C95.81,75.69 95.92,75.77 96.07,75.83L118.45,88.7C118.52,88.74 118.6,88.81 118.66,88.85C121.61,90.88 122.83,94.01 122.86,97.56C122.86,101.17 121.53,105.23 119.58,108.66C117,113.19 113.2,116.19 108.82,118.17C104.65,120.09 100.01,121.12 95.55,121.78C88.55,122.81 81.99,122.15 75.28,120.09C68.72,118.06 62.11,114.71 54.89,110.25L54.36,109.91C51.05,107.84 47.47,105.63 43.96,103.02C31.12,93.32 18.03,79.31 9.5,63.89C2.35,50.95 -1.55,36.98 0.58,23.67C1.76,16.37 4.89,9.73 10.35,5.35C15.11,1.51 21.52,-0.59 29.82,0.15C30.77,0.22 31.62,0.77 32.07,1.59L46.42,25.85C48.52,28.57 48.78,31.27 47.63,33.97C46.68,36.18 44.76,38.22 42.14,40.12C41.37,40.78 40.45,41.45 39.48,42.15C36.27,44.48 32.62,47.17 33.87,50.33L33.84,50.25Z" style="fill:rgb(26,114,212);fill-rule:nonzero;"/>
                </g>
            </g>
        </g>
    </g>
</svg>
