<?xml version="1.0" encoding="UTF-8" standalone="no"?>
<!DOCTYPE svg PUBLIC "-//W3C//DTD SVG 1.1//EN" "http://www.w3.org/Graphics/SVG/1.1/DTD/svg11.dtd">
<svg width="100%" height="100%" viewBox="0 0 523 520" version="1.1" xmlns="http://www.w3.org/2000/svg" xmlns:xlink="http://www.w3.org/1999/xlink" xml:space="preserve" xmlns:serif="http://www.serif.com/" style="fill-rule:evenodd;clip-rule:evenodd;stroke-linejoin:round;stroke-miterlimit:2;">
    <g transform="matrix(1,0,0,1,-338.646,-190.055)">
        <path d="M686.32,709.945L367.177,709.945C351.532,709.928 338.664,697.059 338.646,681.414L338.646,218.586C338.664,202.941 351.532,190.072 367.177,190.055L686.32,190.055C701.965,190.072 714.833,202.941 714.851,218.586L714.851,681.414C714.833,697.059 701.965,709.928 686.32,709.945Z" style="fill:rgb(237,237,237);fill-rule:nonzero;"/>
    </g>
    <g transform="matrix(1,0,0,1,-338.646,-190.055)">
        <path d="M686.882,691.742L366.615,691.742C361.793,691.736 357.826,687.77 357.82,682.947L357.82,217.053C357.826,212.23 361.793,208.264 366.615,208.258L686.882,208.258C691.704,208.264 695.671,212.23 695.677,217.053L695.677,682.947C695.671,687.77 691.704,691.736 686.882,691.742Z" style="fill:white;fill-rule:nonzero;"/>
    </g>
    <circle cx="186.889" cy="8.738" r="2.427" style="fill:white;"/>
    <g transform="matrix(1,0,0,1,-338.646,-190.055)">
        <path d="M612.177,405.287L601.575,373.533L601.395,372.981L646.044,344.778L648.418,347.977L660.853,364.721L656.307,378.264L644.559,413.255L644.044,414.793L665.801,430.969C666.663,432.56 667.38,434.009 667.962,435.342C674.457,450.142 664.843,449.47 664.843,449.47L620.594,430.504L612.177,405.287Z" style="fill:rgb(255,183,183);fill-rule:nonzero;"/>
    </g>
    <g transform="matrix(1,0,0,1,-338.646,-190.055)">
        <path d="M635.602,411.198L633.651,405.353L624.078,376.657L622.083,370.676L620.408,365.67L642.24,351.876L665.057,337.467L679.866,357.41L675.378,370.782L673.196,377.28L669.824,387.33L663.057,407.482L684.814,423.658C686.46,426.545 687.76,429.616 688.686,432.807C689.064,434.139 689.243,435.52 689.218,436.904C689.223,436.988 689.225,437.071 689.225,437.155C689.225,439.907 686.96,442.172 684.208,442.172C684.091,442.172 683.973,442.168 683.856,442.159L639.607,423.193L635.602,411.198Z" style="fill:rgb(255,183,183);fill-rule:nonzero;"/>
    </g>
    <path d="M294.88,222.439L292.312,195.37L305.108,188.432L305.945,189.977L294.17,196.361L296.551,221.455L322.712,239.371L321.72,240.82L294.88,222.439Z" style="fill-opacity:0.15;fill-rule:nonzero;"/>
    <g transform="matrix(0.594248,-0.804282,0.804282,0.594248,-404.567,523.371)">
        <rect x="673.238" y="405.634" width="1.756" height="32.825" style="fill-opacity:0.15;"/>
    </g>
    <path d="M321.218,248.065L188.403,154.698L54.232,247.195L186.402,303.007L321.218,248.065Z" style="fill:white;fill-rule:nonzero;"/>
    <g transform="matrix(1,0,0,1,-338.646,-190.055)">
        <path d="M564.774,358.87L609.497,315.142L689.484,309.738L788.911,404.683L861.354,444.328L840.945,504.343L753.508,462.838C735.707,461.53 724.252,455.623 717.008,449.41C714.517,447.277 712.271,444.872 710.313,442.241C708.169,439.45 706.497,436.328 705.362,432.997L669.824,387.33L662.497,377.906L657.751,371.807L642.24,351.876L641.124,350.443L614.771,349.745L601.057,367.75L591.424,380.385C591.199,384.835 589.591,389.105 586.826,392.598C578.188,403.106 560.672,401.054 560.672,401.054L564.774,358.87Z" style="fill:rgb(255,183,183);fill-rule:nonzero;"/>
    </g>
    <g transform="matrix(1,0,0,1,-338.646,-190.055)">
        <path d="M393.39,437.164L393.486,437.164L448.339,460.587L523.39,492.634C523.982,492.883 524.649,492.886 525.244,492.643L602.674,460.52L658.875,437.202L658.961,437.164L659.057,437.164C660.891,437.166 662.399,438.675 662.401,440.509L662.401,585.765C662.399,587.599 660.891,589.108 659.057,589.11L393.39,589.11C391.556,589.108 390.047,587.599 390.045,585.765L390.045,440.509C390.047,438.675 391.556,437.166 393.39,437.164Z" style="fill:white;fill-rule:nonzero;"/>
    </g>
    <g transform="matrix(1,0,0,1,-338.646,-190.055)">
        <path d="M393.152,438.12C393.249,438.12 393.344,438.09 393.424,438.034L525.569,346.005C526.391,345.435 527.486,345.437 528.306,346.009L659.499,438.033C659.579,438.089 659.675,438.119 659.772,438.119C660.034,438.119 660.25,437.903 660.25,437.641C660.25,437.486 660.175,437.34 660.048,437.251L528.855,345.227C527.707,344.426 526.173,344.423 525.023,345.221L392.878,437.25C392.75,437.339 392.674,437.485 392.674,437.642C392.674,437.904 392.889,438.12 393.151,438.12C393.151,438.12 393.152,438.12 393.152,438.12L393.152,438.12Z" style="fill:rgb(63,61,86);fill-rule:nonzero;"/>
    </g>
    <path d="M313.356,251.327L188.162,158.543L62.019,257.929L181.712,328.885L246.695,314.073L313.356,251.327Z" style="fill:rgb(230,230,230);fill-rule:nonzero;"/>
    <g transform="matrix(1,0,0,1,-338.646,-190.055)">
        <path d="M579.847,562.766L641.705,562.766C641.705,562.766 641.705,562.766 641.706,562.766C643.291,562.766 644.595,561.462 644.595,559.876C644.595,558.294 643.295,556.991 641.713,556.987L579.856,556.987C579.855,556.987 579.855,556.987 579.855,556.987C578.27,556.987 576.965,558.291 576.965,559.876C576.965,561.459 578.265,562.762 579.847,562.766Z" style="fill:rgb(26,114,212);fill-rule:nonzero;"/>
    </g>
    <g transform="matrix(1,0,0,1,-338.646,-190.055)">
        <path d="M619.506,550.343L641.705,550.343C641.705,550.343 641.705,550.343 641.706,550.343C643.291,550.343 644.595,549.038 644.595,547.453C644.595,545.871 643.295,544.568 641.713,544.564L619.515,544.564C619.514,544.564 619.514,544.564 619.514,544.564C617.928,544.564 616.624,545.868 616.624,547.453C616.624,549.036 617.924,550.339 619.506,550.343Z" style="fill:rgb(26,114,212);fill-rule:nonzero;"/>
    </g>
    <g transform="matrix(1,0,0,1,-338.646,-190.055)">
        <path d="M525.048,493.061C525.518,493.062 525.984,492.971 526.419,492.793L603.63,460.756L603.63,360.474C603.628,358.64 602.119,357.132 600.285,357.13L452.162,357.13C450.328,357.132 448.819,358.64 448.817,360.474L448.817,460.826L448.962,460.888L523.635,492.777C524.083,492.965 524.563,493.062 525.048,493.061Z" style="fill:white;fill-rule:nonzero;"/>
    </g>
    <g transform="matrix(1,0,0,1,-338.646,-190.055)">
        <path d="M523.542,492.997L448.578,460.983L448.578,360.474C448.58,358.509 450.197,356.893 452.162,356.891L600.285,356.891C602.25,356.893 603.866,358.509 603.869,360.474L603.869,460.915L526.51,493.014C525.558,493.401 524.489,493.395 523.542,492.997L523.542,492.997ZM602.913,360.474C602.911,359.033 601.726,357.848 600.285,357.846L452.162,357.846C450.721,357.848 449.535,359.033 449.534,360.474L449.534,460.353L523.915,492.117C524.627,492.416 525.43,492.421 526.145,492.13L602.913,460.277L602.913,360.474Z" style="fill:rgb(63,61,86);fill-rule:nonzero;"/>
    </g>
    <g transform="matrix(1,0,0,1,-338.646,-190.055)">
        <path d="M390.762,440.509L390.762,585.765C390.764,587.599 392.273,589.108 394.107,589.11L659.773,589.11C661.607,589.108 663.116,587.599 663.118,585.765L663.118,440.509C663.116,438.675 661.607,437.166 659.773,437.164L659.678,437.164L659.592,437.202L603.391,460.52L525.961,492.643C525.366,492.886 524.699,492.883 524.107,492.634L449.056,460.587L394.203,437.164L394.107,437.164C392.273,437.166 390.764,438.675 390.762,440.509ZM391.718,440.509C391.721,439.235 392.739,438.175 394.011,438.12L449.056,461.623L523.729,493.513C524.559,493.861 525.494,493.867 526.328,493.527L603.391,461.552L659.864,438.12C661.139,438.171 662.161,439.233 662.162,440.509L662.162,585.765C662.162,587.076 661.084,588.154 659.773,588.154L394.107,588.154C392.796,588.154 391.718,587.076 391.718,585.765L391.718,440.509Z" style="fill:rgb(63,61,86);fill-rule:nonzero;"/>
    </g>
    <g transform="matrix(1,0,0,1,-338.646,-190.055)">
        <path d="M465.129,394.615L517.689,394.615C519.786,394.615 521.511,392.889 521.511,390.792C521.511,388.695 519.786,386.97 517.689,386.97L465.129,386.97C463.032,386.97 461.306,388.695 461.306,390.792C461.306,392.889 463.032,394.615 465.129,394.615Z" style="fill:rgb(26,114,212);fill-rule:nonzero;"/>
    </g>
    <g transform="matrix(1,0,0,1,-338.646,-190.055)">
        <path d="M465.16,378.369L490.484,378.369C492.581,378.369 494.307,376.644 494.307,374.547C494.307,372.45 492.581,370.724 490.484,370.724L465.16,370.724C463.063,370.724 461.338,372.45 461.338,374.547C461.338,376.644 463.063,378.369 465.16,378.369Z" style="fill:rgb(26,114,212);fill-rule:nonzero;"/>
    </g>
    <g transform="matrix(1,0,0,1,-338.646,-190.055)">
        <path d="M486.913,432.84L567.186,432.84C569.283,432.84 571.008,431.115 571.008,429.018C571.008,426.921 569.283,425.195 567.186,425.195L486.913,425.195C484.816,425.195 483.09,426.921 483.09,429.018C483.09,431.115 484.816,432.84 486.913,432.84Z" style="fill:rgb(204,204,204);fill-rule:nonzero;"/>
    </g>
    <g transform="matrix(1,0,0,1,-338.646,-190.055)">
        <path d="M486.913,450.52L567.186,450.52C569.283,450.52 571.008,448.794 571.008,446.697C571.008,444.6 569.283,442.875 567.186,442.875L486.913,442.875C484.816,442.875 483.09,444.6 483.09,446.697C483.09,448.794 484.816,450.52 486.913,450.52Z" style="fill:rgb(204,204,204);fill-rule:nonzero;"/>
    </g>
    <g transform="matrix(1,0,0,1,-338.646,-190.055)">
        <path d="M673.196,377.28L689.14,376.358L752.843,454.867L730.337,451.424L717.008,449.41C714.517,447.277 712.271,444.872 710.313,442.241L695.502,437.843L688.686,432.807C689.114,434.444 673.196,377.28 673.196,377.28Z" style="fill-opacity:0.1;fill-rule:nonzero;"/>
    </g>
    <g transform="matrix(1,0,0,1,-338.646,-190.055)">
        <path d="M571.283,374.782C572.228,368.709 577.983,364.478 584.061,365.386L601.057,367.75L622.083,370.676L638.333,372.935L657.751,371.807L675.378,370.782L685.791,370.182L755.034,455.517L695.502,437.843L688.686,432.807L658.843,410.765C658.843,410.765 649.065,408.964 633.651,405.353C631.358,404.808 605.41,398.297 593.221,394.756C590.86,394.068 588.741,393.348 586.826,392.598C573.237,387.249 570.518,380.391 571.283,374.782Z" style="fill:rgb(255,183,183);fill-rule:nonzero;"/>
    </g>
    <g transform="matrix(1,0,0,1,-338.646,-190.055)">
        <path d="M581.017,385.442C581.078,385.435 587.144,384.68 589.733,380.237C591.478,377.244 591.302,373.214 589.212,368.259L590.83,367.576C593.15,373.075 593.289,377.636 591.244,381.133C588.202,386.336 581.501,387.155 581.217,387.188L581.017,385.442Z" style="fill-opacity:0.15;fill-rule:nonzero;"/>
    </g>
    <path d="M303.71,183.525L303.706,181.769L334.938,181.719L302.012,161.133L302.943,159.643L341.046,183.465L303.71,183.525Z" style="fill-opacity:0.15;fill-rule:nonzero;"/>
</svg>
