<?xml version="1.0" encoding="UTF-8" standalone="no"?>
<!DOCTYPE svg PUBLIC "-//W3C//DTD SVG 1.1//EN" "http://www.w3.org/Graphics/SVG/1.1/DTD/svg11.dtd">
<svg width="100%" height="100%" viewBox="0 0 522 605" version="1.1" xmlns="http://www.w3.org/2000/svg" xmlns:xlink="http://www.w3.org/1999/xlink" xml:space="preserve" xmlns:serif="http://www.serif.com/" style="fill-rule:evenodd;clip-rule:evenodd;stroke-linejoin:round;stroke-miterlimit:2;">
    <g transform="matrix(1,0,0,1,-348.251,-147.5)">
        <path d="M596.955,147.5L407.575,147.5C376.849,147.535 351.576,172.807 351.542,203.533L351.542,220.651C351.317,220.589 351.085,220.558 350.852,220.558C349.425,220.558 348.251,221.732 348.251,223.159C348.251,223.169 348.251,223.18 348.251,223.191L348.251,236.354C348.251,236.365 348.251,236.376 348.251,236.386C348.251,237.813 349.425,238.987 350.852,238.987C351.085,238.987 351.317,238.956 351.542,238.894L351.542,258.825C351.317,258.764 351.085,258.732 350.851,258.732C349.425,258.732 348.251,259.906 348.251,261.333C348.251,261.344 348.251,261.354 348.251,261.365L348.251,294.274C348.251,294.285 348.251,294.296 348.251,294.306C348.251,295.733 349.425,296.907 350.851,296.907C351.085,296.907 351.317,296.876 351.542,296.814L351.542,308.847C351.317,308.785 351.085,308.754 350.851,308.754C349.425,308.754 348.251,309.928 348.251,311.355C348.251,311.365 348.251,311.376 348.251,311.387L348.251,344.296C348.251,344.306 348.251,344.317 348.251,344.328C348.251,345.755 349.425,346.929 350.851,346.929C351.085,346.929 351.317,346.897 351.542,346.835L351.542,694.359C351.576,725.085 376.849,750.358 407.575,750.392L596.955,750.392C627.68,750.358 652.953,725.085 652.988,694.359L652.988,203.533C652.953,172.807 627.68,147.535 596.955,147.5ZM641.141,694.359C641.113,718.588 621.184,738.518 596.955,738.545L407.575,738.545C383.346,738.518 363.416,718.588 363.389,694.359L363.389,203.533C363.416,179.304 383.346,159.375 407.575,159.347L596.955,159.347C621.184,159.375 641.113,179.304 641.141,203.533L641.141,694.359Z" style="fill:rgb(63,61,86);fill-rule:nonzero;"/>
    </g>
    <g transform="matrix(1,0,0,1,-348.251,-147.5)">
        <path d="M596.955,745.127L407.575,745.127C379.737,745.095 356.839,722.197 356.807,694.359L356.807,203.533C356.839,175.695 379.737,152.797 407.575,152.765L596.955,152.765C624.793,152.797 647.691,175.695 647.722,203.533L647.722,694.359C647.691,722.197 624.793,745.095 596.955,745.127Z" style="fill:rgb(230,230,230);fill-rule:nonzero;"/>
    </g>
    <g transform="matrix(1,0,0,1,-348.251,-147.5)">
        <path d="M601.634,737.229L402.895,737.229C384.119,737.207 368.676,721.764 368.654,702.988L368.654,194.904C368.676,176.128 384.119,160.685 402.895,160.664L428.813,160.664C431.916,160.667 434.469,163.22 434.472,166.323C434.483,175.491 442.023,183.031 451.191,183.042L550.706,183.042C559.874,183.031 567.414,175.491 567.425,166.323C567.428,163.22 569.981,160.667 573.084,160.664L601.634,160.664C620.41,160.685 635.854,176.128 635.875,194.904L635.875,702.988C635.854,721.764 620.41,737.207 601.634,737.229Z" style="fill:white;fill-rule:nonzero;"/>
    </g>
    <g transform="matrix(1,0,0,1,-348.251,-147.5)">
        <path d="M510.821,172.182L487.127,172.182C485.682,172.182 484.494,170.993 484.494,169.549C484.494,168.105 485.682,166.916 487.127,166.916L510.821,166.916C512.265,166.916 513.454,168.105 513.454,169.549C513.454,170.993 512.265,172.182 510.821,172.182Z" style="fill:white;fill-rule:nonzero;"/>
    </g>
    <g transform="matrix(1,0,0,1,-173.251,0)">
        <circle cx="352.276" cy="22.707" r="1.316" style="fill:white;"/>
    </g>
    <g transform="matrix(1,0,0,1,-173.251,0)">
        <rect x="186.99" y="116" width="280.287" height="3" style="fill:rgb(230,230,230);"/>
    </g>
    <g transform="matrix(1,0,0,1,-173.251,0)">
        <rect x="186.99" y="176" width="280.287" height="3" style="fill:rgb(230,230,230);"/>
    </g>
    <g transform="matrix(1,0,0,1,-173.251,0)">
        <rect x="186.99" y="300" width="280.287" height="3" style="fill:rgb(230,230,230);"/>
    </g>
    <g transform="matrix(1,0,0,1,-173.251,0)">
        <rect x="186.99" y="424" width="280.287" height="3" style="fill:rgb(230,230,230);"/>
    </g>
    <g transform="matrix(1,0,0,1,-173.251,0)">
        <rect x="186.99" y="521" width="280.287" height="3" style="fill:rgb(230,230,230);"/>
    </g>
    <g transform="matrix(1,0,0,1,-173.251,0)">
        <rect x="387.542" y="117.5" width="3" height="184" style="fill:rgb(230,230,230);"/>
    </g>
    <g transform="matrix(1,0,0,1,-173.251,0)">
        <rect x="247.227" y="301.446" width="3" height="221.054" style="fill:rgb(230,230,230);"/>
    </g>
    <g transform="matrix(1,0,0,1,-173.251,0)">
        <rect x="248.727" y="362.083" width="212.149" height="3" style="fill:rgb(230,230,230);"/>
    </g>
    <g transform="matrix(1,0,0,1,-173.251,0)">
        <rect x="387.864" y="522.5" width="3" height="67.229" style="fill:rgb(230,230,230);"/>
    </g>
    <g transform="matrix(1,0,0,1,-173.251,0)">
        <rect x="193.154" y="239.229" width="195.387" height="3" style="fill:rgb(230,230,230);"/>
    </g>
    <g transform="matrix(0.922479,-0.386048,0.386048,0.922479,-396.85,34.8258)">
        <rect x="428.182" y="154.908" width="3" height="114.531" style="fill:rgb(230,230,230);"/>
    </g>
    <g transform="matrix(1,0,0,1,-173.251,0)">
        <rect x="367.132" y="35.542" width="3" height="81.959" style="fill:rgb(230,230,230);"/>
    </g>
    <g transform="matrix(1,0,0,1,-348.251,-147.5)">
        <path d="M622.49,310.5C622.49,337.38 580.931,400.016 568.786,417.747C568.042,418.834 566.807,419.486 565.49,419.486C564.173,419.486 562.938,418.834 562.195,417.747C550.05,400.016 508.49,337.38 508.49,310.5C508.49,279.231 534.221,253.5 565.49,253.5C596.76,253.5 622.49,279.231 622.49,310.5Z" style="fill:rgb(26,114,212);fill-rule:nonzero;"/>
    </g>
    <g transform="matrix(1,0,0,1,-173.251,0)">
        <circle cx="390.49" cy="159" r="29" style="fill:white;"/>
    </g>
    <g transform="matrix(0.447571,-0.894248,0.894248,0.447571,-567.504,618.081)">
        <rect x="387.328" y="558.75" width="245.382" height="3" style="fill:rgb(230,230,230);"/>
    </g>
    <g transform="matrix(1,0,0,1,-348.251,-147.5)">
        <path d="M721.759,498.13C723.222,498.917 724.859,499.329 726.52,499.329C730.856,499.329 734.726,496.525 736.076,492.405L771.805,491.787L761.316,476.464L728.995,479.4C728.176,479.19 727.334,479.084 726.488,479.084C720.942,479.084 716.378,483.648 716.378,489.194C716.378,492.934 718.453,496.381 721.759,498.13L721.759,498.13Z" style="fill:rgb(255,184,184);fill-rule:nonzero;"/>
    </g>
    <g transform="matrix(1,0,0,1,-348.251,-147.5)">
        <path d="M743.208,497.684C740.958,497.684 739.107,495.833 739.107,493.583C739.107,493.523 739.108,493.463 739.11,493.403L739.832,477.019C739.913,475.012 741.464,473.348 743.461,473.126L784.852,468.379L783.465,495.681L743.411,497.678C743.343,497.682 743.275,497.684 743.208,497.684Z" style="fill:rgb(26,114,212);fill-rule:nonzero;"/>
    </g>
    <g transform="matrix(1,0,0,1,-173.251,0)">
        <path d="M618.618,574.755L606.964,578.561L586.737,535.421L603.937,529.804L618.618,574.755Z" style="fill:rgb(255,184,184);fill-rule:nonzero;"/>
    </g>
    <g transform="matrix(1,0,0,1,-348.251,-147.5)">
        <path d="M800.28,732.581L762.703,744.854L762.548,744.378C762.044,742.836 761.787,741.223 761.787,739.601C761.787,732.961 766.085,727.036 772.396,724.975L772.397,724.975L795.348,717.479L800.28,732.581Z" style="fill:rgb(47,46,65);fill-rule:nonzero;"/>
    </g>
    <g transform="matrix(1,0,0,1,-173.251,0)">
        <path d="M652.944,592.796L640.684,592.795L634.852,545.507L652.946,545.508L652.944,592.796Z" style="fill:rgb(255,184,184);fill-rule:nonzero;"/>
    </g>
    <g transform="matrix(1,0,0,1,-348.251,-147.5)">
        <path d="M831.071,752.18L791.54,752.179C791.54,752.179 791.54,751.678 791.54,751.678C791.54,743.238 798.486,736.292 806.926,736.292C806.926,736.292 831.071,736.293 831.071,736.293L831.071,752.18Z" style="fill:rgb(47,46,65);fill-rule:nonzero;"/>
    </g>
    <g transform="matrix(1,0,0,1,-348.251,-147.5)">
        <path d="M809.323,728.787C807.259,728.784 805.502,727.224 805.255,725.174L789.448,593.029L766.311,630.171L793.459,699.548C794.22,701.525 793.341,703.784 791.443,704.726L768.413,715.996C767.852,716.27 767.236,716.413 766.611,716.413C764.848,716.413 763.273,715.275 762.719,713.601L737.197,636.493C735.274,630.69 735.023,624.462 736.472,618.524L752.975,550.802L753.168,550.697L790.367,530.321L790.58,530.399L834.388,546.388L829.803,633.206L833.134,723.314C833.228,725.527 831.502,727.433 829.29,727.558L809.58,728.779C809.494,728.784 809.408,728.787 809.323,728.787Z" style="fill:rgb(47,46,65);fill-rule:nonzero;"/>
    </g>
    <g transform="matrix(1,0,0,1,-348.251,-147.5)">
        <path d="M785.192,576.536C778.647,576.536 773.133,574.671 769.683,569.932L769.571,569.78L771.804,546.354L751.949,557.375C751.607,557.565 751.223,557.664 750.832,557.664C749.571,557.664 748.532,556.626 748.532,555.364C748.532,555.088 748.582,554.813 748.68,554.554L773.442,488.795L789.791,435.228C791.447,426.47 798.377,419.606 807.15,418.032C821.714,415.356 830.389,420.271 840.406,431.177C845.312,436.55 847.465,443.902 846.232,451.073L836.756,505.234L839.54,553.794C839.976,555.507 839.256,557.317 837.763,558.263C830.018,563.193 806.27,576.534 785.192,576.536Z" style="fill:rgb(26,114,212);fill-rule:nonzero;"/>
    </g>
    <g transform="matrix(1,0,0,1,-173.251,0)">
        <circle cx="643.328" cy="237.86" r="24.561" style="fill:rgb(255,184,184);"/>
    </g>
    <g transform="matrix(1,0,0,1,-348.251,-147.5)">
        <path d="M824.725,560.438C828.293,558.802 830.59,555.221 830.59,551.297C830.59,549.249 829.965,547.249 828.797,545.566L849.862,516.699L831.313,515.819L814.154,543.366C811.747,545.283 810.342,548.198 810.342,551.275C810.342,556.821 814.906,561.385 820.453,561.385C821.929,561.385 823.387,561.061 824.725,560.438L824.725,560.438Z" style="fill:rgb(255,184,184);fill-rule:nonzero;"/>
    </g>
    <g transform="matrix(1,0,0,1,-348.251,-147.5)">
        <path d="M836.133,544.148C835.106,544.294 834.06,544.046 833.208,543.452L819.263,533.728C817.535,532.532 816.998,530.186 818.035,528.357L842.861,484.186L817.891,454.13C815.687,451.477 814.479,448.133 814.479,444.684C814.479,436.574 821.153,429.9 829.263,429.9C834.58,429.9 839.503,432.77 842.125,437.396L869.695,486.057C870.091,486.761 870.091,487.624 869.693,488.327L839.118,542.115C838.548,543.117 837.581,543.833 836.457,544.088C836.35,544.113 836.242,544.133 836.133,544.148Z" style="fill:rgb(26,114,212);fill-rule:nonzero;"/>
    </g>
    <g transform="matrix(1,0,0,1,-348.251,-147.5)">
        <path d="M808.512,382.224C806.081,380.41 802.716,380.693 799.836,379.742C795.626,378.352 792.765,374.394 792.765,369.961C792.765,367.035 794.012,364.243 796.191,362.29C799.302,359.503 803.728,358.87 807.874,358.36C813.553,357.661 819.288,356.962 824.983,357.517C830.679,358.073 836.412,359.997 840.575,363.923C845.165,368.252 847.425,374.696 847.44,381.006C847.28,387.344 845.54,393.543 842.378,399.039C841.4,401.127 839.927,402.945 838.086,404.333C836.17,405.598 833.47,405.929 831.625,404.563C830.03,403.383 829.447,401.315 828.726,399.466C828.006,397.618 826.776,395.649 824.813,395.364C822.285,394.996 820.355,397.567 817.943,398.409C814.568,399.585 810.82,396.983 809.444,393.685C808.067,390.387 808.43,386.656 808.816,383.103" style="fill:rgb(47,46,65);fill-rule:nonzero;"/>
    </g>
    <g transform="matrix(1,0,0,1,-173.251,0)">
        <circle cx="390.49" cy="301" r="13" style="fill:rgb(26,114,212);"/>
    </g>
</svg>
