<?xml version="1.0" encoding="UTF-8" standalone="no"?>
<!DOCTYPE svg PUBLIC "-//W3C//DTD SVG 1.1//EN" "http://www.w3.org/Graphics/SVG/1.1/DTD/svg11.dtd">
<svg width="100%" height="100%" viewBox="0 0 470 416" version="1.1" xmlns="http://www.w3.org/2000/svg" xmlns:xlink="http://www.w3.org/1999/xlink" xml:space="preserve" xmlns:serif="http://www.serif.com/" style="fill-rule:evenodd;clip-rule:evenodd;stroke-linejoin:round;stroke-miterlimit:2;">
    <g transform="matrix(1,0,0,1,-279.5,-264.458)">
        <path d="M738.664,382.065C738.601,381.645 738.362,381.271 738.008,381.037L685.235,346.198C686.03,345.866 686.695,345.283 687.129,344.539L687.129,344.539C688.219,342.637 687.56,340.176 685.665,339.075L681.335,336.575C679.434,335.484 676.972,336.144 675.871,338.039C675.583,338.542 675.41,339.103 675.364,339.682L637.27,314.533C634.682,308.266 629.457,303.448 623,301.377L623,290.289L609,290.289L609,301.377C599.495,304.417 593.001,313.309 593,323.289L593,326.289L607,326.289C607,331.226 611.063,335.289 616,335.289C620.937,335.289 625,331.226 625,326.289L639,326.289L639,323.289C638.999,321.851 638.863,320.416 638.595,319.003L734.964,382.623L694.933,431.293C694.622,431.292 694.313,431.289 694,431.289C690.806,431.289 687.711,431.364 684.763,431.494C684.941,431 685.018,430.475 684.991,429.951C684.871,427.762 682.978,426.056 680.789,426.164L675.795,426.424C673.607,426.545 671.901,428.438 672.009,430.627C672.046,431.252 672.232,431.86 672.551,432.399C663.722,433.337 658,434.631 658,435.289C658,436.367 673.363,435.341 692.592,435.291C692.803,435.887 693.37,436.289 694.002,436.289C694.45,436.289 694.874,436.088 695.158,435.741L695.529,435.291C714.701,435.345 730,436.365 730,435.289C730,434.274 716.398,431.75 698.774,431.346L738.34,383.241C738.609,382.913 738.727,382.485 738.664,382.065Z" style="fill:rgb(204,204,204);fill-rule:nonzero;"/>
    </g>
    <g transform="matrix(1,0,0,1,-279.5,-264.458)">
        <path d="M740.107,679.789L616.892,679.789C611.742,679.783 607.506,675.547 607.5,670.396L607.5,468.181C607.495,463.579 603.71,459.794 599.108,459.789L310.892,459.789C306.291,459.794 302.505,463.579 302.5,468.181L302.5,670.396C302.494,675.547 298.258,679.783 293.108,679.789L288.892,679.789C283.742,679.783 279.506,675.547 279.5,670.396L279.5,457.289C279.514,444.951 289.662,434.803 302,434.789L727,434.789C739.338,434.803 749.486,444.951 749.5,457.289L749.5,670.396C749.494,675.547 745.258,679.783 740.107,679.789Z" style="fill:rgb(228,228,228);fill-rule:nonzero;"/>
    </g>
    <g transform="matrix(1,0,0,1,-279.5,-264.458)">
        <path d="M491.284,433.801L487.231,432.095L484.451,411.78L447.431,411.78L444.418,432.012L440.792,433.825C440.501,433.97 440.316,434.269 440.316,434.595C440.316,435.067 440.705,435.456 441.177,435.456C441.177,435.456 490.95,435.456 490.95,435.456C491.422,435.456 491.811,435.067 491.811,434.595C491.811,434.249 491.602,433.935 491.284,433.801Z" style="fill:rgb(230,230,230);fill-rule:nonzero;"/>
    </g>
    <g transform="matrix(1,0,0,1,-279.5,-264.458)">
        <path d="M557.071,414.483L375.217,414.483C373.244,414.478 371.623,412.853 371.623,410.88L371.623,385.236L560.666,385.236L560.666,410.88C560.666,412.853 559.045,414.478 557.071,414.483Z" style="fill:rgb(204,204,204);fill-rule:nonzero;"/>
    </g>
    <g transform="matrix(1,0,0,1,-279.5,-264.458)">
        <path d="M560.856,397.356L371.457,397.356L371.457,287.632C371.459,285.25 373.418,283.291 375.8,283.289L556.513,283.289C558.894,283.291 560.853,285.25 560.856,287.632L560.856,397.356Z" style="fill:rgb(63,61,86);fill-rule:nonzero;"/>
    </g>
    <g transform="matrix(1,0,0,1,-279.5,-264.458)">
        <path d="M549.544,389.392L382.769,389.392C380.933,389.39 379.422,387.88 379.42,386.044L379.42,294.601C379.422,292.765 380.933,291.254 382.769,291.252L549.544,291.252C551.38,291.254 552.89,292.765 552.892,294.601L552.892,386.044C552.89,387.88 551.38,389.39 549.544,389.392Z" style="fill:white;fill-rule:nonzero;"/>
    </g>
    <g transform="matrix(1,0,0,1,-279.5,-264.458)">
        <path d="M548.376,357.557C548.285,358.325 548.255,359.1 548.285,359.873L492.213,400.667L476.808,393.849L463.481,415.753L489.579,430.472C493.897,432.907 499.343,432.195 502.889,428.731L559.325,373.607C560.506,373.908 561.72,374.059 562.939,374.059C570.991,374.059 577.617,367.434 577.617,359.382C577.617,351.331 570.991,344.705 562.939,344.705C555.574,344.705 549.292,350.249 548.376,357.557L548.376,357.557Z" style="fill:rgb(255,182,182);fill-rule:nonzero;"/>
    </g>
    <g transform="matrix(1,0,0,1,-279.5,-264.458)">
        <path d="M490.399,402.158L474.047,429.406C472.911,431.298 470.86,432.46 468.652,432.46C467.196,432.46 465.784,431.955 464.659,431.031L440.176,410.923C434.969,407.757 431.781,402.087 431.781,395.993C431.781,386.407 439.669,378.519 449.255,378.519C452.423,378.519 455.531,379.38 458.247,381.01L487.417,393.109C489.761,394.082 491.296,396.382 491.296,398.92C491.296,400.061 490.986,401.18 490.399,402.158L490.399,402.158Z" style="fill:rgb(26,114,212);fill-rule:nonzero;"/>
    </g>
    <g transform="matrix(-1,7.65714e-16,-7.65714e-16,-1,593.225,960.415)">
        <rect x="420.336" y="585.879" width="32.052" height="53.115" style="fill:rgb(202,202,202);"/>
    </g>
    <g transform="matrix(0.561498,-0.827478,0.827478,0.561498,-598.031,420.687)">
        <rect x="483.525" y="596.633" width="7.327" height="92.965" style="fill:rgb(202,202,202);"/>
    </g>
    <g transform="matrix(0.827476,-0.561501,0.561501,0.827476,-574.096,62.9743)">
        <rect x="339.054" y="639.452" width="92.965" height="7.327" style="fill:rgb(202,202,202);"/>
    </g>
    <g transform="matrix(1,0,0,1,-84.3378,-45.7468)">
        <circle cx="330.489" cy="450.504" r="10.074" style="fill:rgb(202,202,202);"/>
    </g>
    <g transform="matrix(1,0,0,1,-84.3378,-45.7468)">
        <circle cx="240.742" cy="450.504" r="10.074" style="fill:rgb(202,202,202);"/>
    </g>
    <g transform="matrix(1,0,0,1,-84.3378,-45.7468)">
        <circle cx="151.911" cy="450.504" r="10.074" style="fill:rgb(202,202,202);"/>
    </g>
    <g transform="matrix(1,0,0,1,-84.3378,-45.7468)">
        <rect x="237.079" y="398.304" width="7.326" height="52.2" style="fill:rgb(202,202,202);"/>
    </g>
    <g transform="matrix(-1,7.65714e-16,-7.65714e-16,-1,593.225,884.405)">
        <rect x="429.494" y="539.174" width="13.737" height="70.515" style="fill:rgb(202,202,202);"/>
    </g>
    <g transform="matrix(1,0,0,1,-279.5,-264.458)">
        <path d="M396.984,550.163L396.984,533.679C396.991,527.402 402.154,522.239 408.431,522.232L469.789,522.232C476.066,522.239 481.229,527.402 481.236,533.679L481.236,550.163C481.229,556.44 476.066,561.603 469.789,561.61L408.431,561.61C402.154,561.603 396.991,556.44 396.984,550.163Z" style="fill:rgb(63,61,86);fill-rule:nonzero;"/>
    </g>
    <g transform="matrix(1,0,0,1,-84.3378,-45.7468)">
        <path d="M312.641,444.129L329.609,444.128L337.683,400.117L312.639,400.118L312.641,444.129Z" style="fill:rgb(255,184,184);fill-rule:nonzero;"/>
    </g>
    <g transform="matrix(1,0,0,1,-279.5,-264.458)">
        <path d="M503.476,679.289L558.191,679.287C558.191,679.287 558.191,678.594 558.191,678.594C558.191,666.912 548.577,657.298 536.895,657.298L536.893,657.298L503.475,657.3L503.476,679.289Z" style="fill:rgb(47,46,65);fill-rule:nonzero;"/>
    </g>
    <g transform="matrix(1,0,0,1,-279.5,-264.458)">
        <path d="M533.183,635.548L567.013,559.688C572.838,546.5 567.488,530.857 554.807,523.999L481.43,484.652L447.946,481.804L417.06,478.996L416.837,479.373C416.552,479.855 409.912,491.325 414.4,503.902C417.805,513.443 426.662,520.894 440.725,526.051C473.548,538.086 511.466,548.373 526.245,552.236C527.565,552.574 528.68,553.461 529.305,554.672C529.932,555.868 530.031,557.274 529.577,558.546L498.148,629.156C497.897,629.843 497.768,630.568 497.768,631.3C497.768,634.5 500.234,637.206 503.421,637.501L526.905,639.211C527.104,639.23 527.302,639.24 527.5,639.24C529.953,639.239 532.185,637.788 533.183,635.548Z" style="fill:rgb(47,46,65);fill-rule:nonzero;"/>
    </g>
    <g transform="matrix(1,0,0,1,-84.3378,-45.7468)">
        <path d="M301.568,444.129L318.536,444.128L326.61,400.117L301.566,400.118L301.568,444.129Z" style="fill:rgb(255,184,184);fill-rule:nonzero;"/>
    </g>
    <g transform="matrix(1,0,0,1,-279.5,-264.458)">
        <path d="M492.403,679.289L547.118,679.287C547.118,679.287 547.118,678.594 547.118,678.594C547.118,666.912 537.504,657.298 525.822,657.298L525.82,657.298L492.402,657.3L492.403,679.289Z" style="fill:rgb(47,46,65);fill-rule:nonzero;"/>
    </g>
    <g transform="matrix(1,0,0,1,-279.5,-264.458)">
        <path d="M520.726,639.701L554.556,563.84C560.381,550.652 555.031,535.01 542.35,528.152L468.973,488.804L435.489,485.956L411.297,483.858L411.301,483.526C411.016,484.007 404.375,495.477 408.864,508.055C412.269,517.595 414.205,525.047 428.268,530.203C461.091,542.239 499.009,552.525 513.788,556.388C515.108,556.726 516.223,557.613 516.848,558.824C517.475,560.02 517.574,561.426 517.12,562.698L485.691,633.308C485.44,633.995 485.311,634.721 485.311,635.452C485.311,638.652 487.777,641.358 490.964,641.654L514.448,643.364C514.647,643.383 514.845,643.392 515.043,643.392C517.495,643.391 519.728,641.941 520.726,639.701Z" style="fill:rgb(47,46,65);fill-rule:nonzero;"/>
    </g>
    <g transform="matrix(0.231362,-0.972868,0.972868,0.231362,-217.789,423.819)">
        <circle cx="466.433" cy="305.085" r="33.995" style="fill:rgb(255,184,184);"/>
    </g>
    <g transform="matrix(1,0,0,1,-279.5,-264.458)">
        <path d="M583.615,435.697C597.831,416.789 609.069,395.815 616.939,373.506C617.876,370.762 616.68,367.712 614.126,366.337L565.481,340.272C563.887,339.412 561.982,339.334 560.324,340.063C558.635,340.797 557.377,342.271 556.918,344.055C551.256,365.551 540.612,385.416 525.85,402.037C524.62,403.406 524.089,405.271 524.413,407.084C524.725,408.868 525.845,410.411 527.444,411.261L576.089,437.327C578.648,438.691 581.85,437.998 583.615,435.697Z" style="fill:rgb(204,204,204);fill-rule:nonzero;"/>
    </g>
    <g transform="matrix(1,0,0,1,-279.5,-264.458)">
        <path d="M580.296,433.203C579.758,433.874 578.81,434.07 578.051,433.667L529.405,407.601C528.926,407.351 528.592,406.891 528.502,406.359C528.399,405.798 528.566,405.219 528.952,404.798C544.149,387.688 555.106,367.238 560.934,345.108C561.071,344.554 561.46,344.095 561.984,343.869C562.477,343.648 563.047,343.672 563.521,343.933L612.165,369.998C612.922,370.407 613.284,371.305 613.023,372.125C605.294,394.035 594.257,414.633 580.296,433.203Z" style="fill:white;fill-rule:nonzero;"/>
    </g>
    <g transform="matrix(1,0,0,1,-279.5,-264.458)">
        <path d="M563.277,368.697L596.829,388.363C600.167,390.32 603.19,385.136 599.857,383.182L566.305,363.516C562.967,361.559 559.944,366.743 563.277,368.697L563.277,368.697Z" style="fill:rgb(204,204,204);fill-rule:nonzero;"/>
    </g>
    <g transform="matrix(1,0,0,1,-279.5,-264.458)">
        <path d="M557.277,379.697L590.829,399.363C594.167,401.32 597.19,396.136 593.857,394.182L560.305,374.516C556.967,372.559 553.944,377.743 557.277,379.697L557.277,379.697Z" style="fill:rgb(204,204,204);fill-rule:nonzero;"/>
    </g>
    <g transform="matrix(1,0,0,1,-279.5,-264.458)">
        <path d="M552.563,390.654L583.077,408.769C586.113,410.571 589.36,406.845 586.329,405.045L555.815,386.931C552.779,385.128 549.532,388.855 552.563,390.654Z" style="fill:rgb(204,204,204);fill-rule:nonzero;"/>
    </g>
    <g transform="matrix(1,0,0,1,-279.5,-264.458)">
        <path d="M543.277,401.697L576.829,421.363C580.167,423.32 583.19,418.136 579.857,416.182L546.305,396.516C542.967,394.559 539.944,399.743 543.277,401.697L543.277,401.697Z" style="fill:rgb(204,204,204);fill-rule:nonzero;"/>
    </g>
    <g transform="matrix(1,0,0,1,-279.5,-264.458)">
        <path d="M486.034,487.406L418.76,487.003L418.742,486.525C417.459,452.771 421.585,422.195 431.354,393.05C431.492,391.959 431.641,390.793 431.787,389.649C433.456,376.61 434.781,366.257 447.18,362.402C446.147,361.028 445.538,359.382 445.428,357.667C445.271,355.366 446.044,353.094 447.573,351.367C449.037,349.699 451.111,348.688 453.326,348.561L477.271,347.745C478.529,347.737 479.754,348.152 480.748,348.924C484.497,351.709 485.684,356.856 483.532,361.001C483.25,361.563 483.142,361.819 483.1,361.93C483.952,366.39 486.478,371.688 489.15,377.294C492.977,385.322 497.315,394.419 498.43,404.153C499.033,409.408 498.782,414.726 497.689,419.902C497.19,422.69 497.075,425.535 497.347,428.355C497.566,432.536 497.772,436.485 495.409,440.303C494.806,441.338 494.117,442.442 493.308,443.664L489.983,451.613L486.034,487.406Z" style="fill:rgb(26,114,212);fill-rule:nonzero;"/>
    </g>
    <g transform="matrix(1,0,0,1,-279.5,-264.458)">
        <path d="M385.079,534.642L385.079,397.18C385.089,387.916 392.709,380.296 401.974,380.285L406.647,380.285C415.911,380.296 423.531,387.916 423.542,397.18L423.542,534.642C423.531,543.906 415.911,551.526 406.647,551.537L401.974,551.537C392.709,551.526 385.089,543.906 385.079,534.642Z" style="fill:rgb(63,61,86);fill-rule:nonzero;"/>
    </g>
    <g transform="matrix(1,0,0,1,-279.5,-264.458)">
        <path d="M565.483,410.9C565,411.504 564.565,412.146 564.183,412.819L495.025,417.869L485.54,403.947L462.659,415.516L477.056,441.793C479.438,446.141 484.439,448.41 489.28,447.34L566.31,430.312C569.076,433.188 572.898,434.815 576.888,434.815C584.94,434.815 591.566,428.189 591.566,420.138C591.566,412.086 584.94,405.46 576.888,405.46C572.463,405.46 568.268,407.461 565.483,410.9Z" style="fill:rgb(255,182,182);fill-rule:nonzero;"/>
    </g>
    <g transform="matrix(1,0,0,1,-279.5,-264.458)">
        <path d="M492.698,418.178L464.427,432.689C463.538,433.146 462.553,433.384 461.554,433.384C458.865,433.384 456.46,431.66 455.596,429.114L445.415,399.113C441.098,390.595 444.526,380.035 453.023,375.677C440.491,382.11 466.592,363.838 476.553,383.245L494.941,408.918C495.706,409.986 496.117,411.267 496.117,412.58C496.117,414.936 494.794,417.102 492.698,418.178L492.698,418.178Z" style="fill:rgb(26,114,212);fill-rule:nonzero;"/>
    </g>
    <g transform="matrix(1,0,0,1,-279.5,-264.458)">
        <path d="M451.076,338.15C449.03,338.15 446.772,337.163 444.226,335.165C428.878,323.113 423.426,302.141 430.961,284.14C432.812,279.719 436.273,273.71 442.254,270.189C446.552,267.658 451.602,266.744 455.998,266.086C459.804,265.516 463.657,265.062 467.451,264.739C471.985,264.351 477.221,264.089 481.997,265.904C485.497,267.234 488.475,269.582 491.356,271.854C492.359,272.645 493.398,273.464 494.438,274.222C496.957,276.187 499.863,277.599 502.965,278.363C504.289,278.638 505.431,279.474 506.092,280.653C506.766,281.852 506.888,283.287 506.425,284.582C505.976,285.842 505.571,286.978 506.391,288.208C507.008,289.088 508.023,289.605 509.097,289.587C509.664,289.578 510.199,289.857 510.515,290.327C510.837,290.793 510.906,291.39 510.701,291.917L510.569,292.256C511.283,292.323 511.92,292.737 512.27,293.363C512.797,294.264 512.625,295.421 511.859,296.13C508.826,299.017 505.043,300.997 500.941,301.844C498.135,302.395 495.247,302.388 492.442,301.824L491.991,301.737L492.047,301.237C480.703,297.191 470.463,304.057 464.625,311.906L463.782,311.374C464.074,310.783 464.113,310.098 463.889,309.478C463.652,308.734 463.128,308.114 462.434,307.757C461.015,307.172 459.375,307.499 458.289,308.584C457.195,309.731 456.632,311.288 456.74,312.87C456.893,314.53 457.316,316.153 457.991,317.676C458.266,318.404 458.55,319.158 458.78,319.918C460.072,324.233 459.727,328.876 457.813,332.953C456.929,334.814 455.331,337.186 452.737,337.921C452.197,338.074 451.637,338.151 451.076,338.15Z" style="fill:rgb(47,46,65);fill-rule:nonzero;"/>
    </g>
</svg>
