<?xml version="1.0" encoding="UTF-8" standalone="no"?><!DOCTYPE svg PUBLIC "-//W3C//DTD SVG 1.1//EN" "http://www.w3.org/Graphics/SVG/1.1/DTD/svg11.dtd"><svg width="100%" height="100%" viewBox="0 0 37084 12280" version="1.1" xmlns="http://www.w3.org/2000/svg" xmlns:xlink="http://www.w3.org/1999/xlink" xml:space="preserve" xmlns:serif="http://www.serif.com/" style="fill-rule:evenodd;clip-rule:evenodd;stroke-linejoin:round;stroke-miterlimit:2;"><g id="with_transparent"><path d="M17956,6034.03l0,511.108l-2202.63,0l-0,3857.65l-559.786,-0l0,-8518.48l3237.02,-0l-0,511.108l-2677.24,0l-0,3638.61l2202.63,-0Z" style="fill:#fff;fill-rule:nonzero;"/><rect x="19282.5" y="1884.32" width="559.785" height="8518.48" style="fill:#fff;fill-rule:nonzero;"/><path d="M24576.1,10402.8l-3833.31,-0l0,-511.109l3297.87,-7496.26l-3139.67,0l-0,-511.108l3723.79,-0l0,523.277l-3297.87,7484.09l3249.19,0l0,511.109Z" style="fill:#fff;fill-rule:nonzero;"/><path d="M25403.6,9891.68c89.241,8.113 174.426,10.141 255.554,6.085c81.129,-4.057 162.257,-10.141 243.385,-18.254c405.642,-32.451 707.845,-164.285 906.609,-395.501c198.765,-231.215 298.147,-610.49 298.147,-1137.83l0,-6461.87l559.786,-0l-0,6425.36c-0,746.38 -154.144,1275.74 -462.432,1588.09c-308.288,312.344 -722.042,480.685 -1241.26,505.024c-178.483,8.113 -365.078,8.113 -559.786,-0l0,-511.109Z" style="fill:#fff;fill-rule:nonzero;"/><path d="M28579.8,3965.26c0,-308.287 36.508,-594.265 109.524,-857.932c73.015,-263.667 184.567,-490.826 334.654,-681.478c150.087,-190.651 342.767,-340.739 578.039,-450.262c235.272,-109.523 515.165,-164.285 839.679,-164.285c324.513,0 606.434,54.762 845.762,164.285c239.329,109.523 436.065,259.611 590.209,450.262c154.144,190.652 267.724,417.811 340.739,681.478c73.016,263.667 109.523,549.645 109.523,857.932l0,4356.59c0,308.288 -36.507,594.265 -109.523,857.932c-73.015,263.667 -186.595,490.826 -340.739,681.478c-154.144,190.652 -350.88,340.739 -590.209,450.262c-239.328,109.524 -521.249,164.285 -845.762,164.285c-324.514,0 -604.407,-54.761 -839.679,-164.285c-235.272,-109.523 -427.952,-259.61 -578.039,-450.262c-150.087,-190.652 -261.639,-417.811 -334.654,-681.478c-73.016,-263.667 -109.524,-549.644 -109.524,-857.932l0,-4356.59Zm559.786,4393.1c-0,462.431 99.382,845.763 298.146,1149.99c198.765,304.231 533.419,456.347 1003.96,456.347c470.544,-0 809.255,-152.116 1016.13,-456.347c206.877,-304.231 310.316,-687.563 310.316,-1149.99l-0,-4429.61c-0,-462.432 -103.439,-845.763 -310.316,-1149.99c-206.877,-304.232 -545.588,-456.347 -1016.13,-456.347c-470.545,-0 -805.199,152.115 -1003.96,456.347c-198.764,304.231 -298.146,687.562 -298.146,1149.99l-0,4429.61Z" style="fill:#fff;fill-rule:nonzero;"/><path d="M35333.7,6350.43l0,1776.71l-413.754,-0l-0,-1776.71l-1728.03,0l0,-413.754l1728.03,-0l-0,-1752.37l413.754,-0l0,1752.37l1740.2,-0l-0,413.754l-1740.2,0Z" style="fill:#fff;fill-rule:nonzero;"/><path d="M8180.46,11164.1l0,1110.03l-4057.68,0l-0,-4135.21l-4122.76,0l-0,-4065.21l2374.6,-0c386.837,-1297.53 1214.14,-1763.61 1214.14,-1763.61c0,0 -72.166,87.179 -166.883,242.734c-485.467,785.125 -443.762,1520.88 -443.762,1520.88c3.295,622.221 238.116,1346.97 985.858,2067.6c-0,-0 -13.371,-547.417 751.446,-1156.86c-0,0 -687.146,-210.341 -1042.08,-910.741l449.433,-0l-0,-4065.21l4057.68,3.546l0,2988.18c1521.04,-943.075 907.1,-2583.89 907.1,-2583.89c78.284,149.733 140.821,295.692 189.454,437.654c96.734,296.013 180.138,718.808 107.188,1194.67c-129.675,760.517 -616.987,1316.88 -930.408,1605.3c-84.134,75.212 -175.088,149.871 -273.334,223.729c-407.075,306.033 -939.308,598.354 -1630.2,859.696c-5555.83,2101.57 1605.98,6426.71 1630.2,6426.71Zm1913.47,-7090.4l2218.93,0l2.754,4065.21l-4135.15,-0l0,3024.87c-23.966,-37.855 -4215.75,-3369.47 -1345.26,-4769.21c1496.69,-729.829 2759.17,-1381.33 3258.73,-2320.88l0,0.004Zm-3936.12,-2185.76c-626.57,-0 -1135.27,508.696 -1135.27,1135.27c-0,626.571 508.696,1135.26 1135.27,1135.26c626.571,-0 1135.27,-508.692 1135.27,-1135.26c0,-626.57 -508.696,-1135.27 -1135.27,-1135.27Z" style="fill:#fff;"/></g></svg>