<?xml version="1.0" encoding="UTF-8" standalone="no"?>
<!DOCTYPE svg PUBLIC "-//W3C//DTD SVG 1.1//EN" "http://www.w3.org/Graphics/SVG/1.1/DTD/svg11.dtd">
<svg width="100%" height="100%" viewBox="0 0 169 59" version="1.1" xmlns="http://www.w3.org/2000/svg" xmlns:xlink="http://www.w3.org/1999/xlink" xml:space="preserve" xmlns:serif="http://www.serif.com/" style="fill-rule:evenodd;clip-rule:evenodd;stroke-linejoin:round;stroke-miterlimit:2;">
    <g transform="matrix(0.798781,0,0,0.798781,-546.559,-190.393)">
        <g transform="matrix(4.03844,0,0,4.03844,-1057.3,-1476.61)">
            <path d="M437.762,430.103L437.762,437.331L439.164,437.331L439.164,434.418L443.39,434.418L443.39,433.015L439.164,433.015L439.164,431.506L443.39,431.506L443.39,430.103L437.762,430.103Z" style="fill-rule:nonzero;"/>
        </g>
        <g transform="matrix(0.610143,0,0,0.610143,517.419,-71.8658)">
            <path d="M384.43,555.038L384.43,563.811L375.657,563.811L375.657,572.959L384.43,572.959L384.43,581.731L393.578,581.731L393.578,572.959L402.35,572.959L402.35,563.811L393.578,563.811L393.578,555.038L384.43,555.038Z" style="fill:none;fill-rule:nonzero;stroke:black;stroke-width:2.03px;"/>
        </g>
        <g transform="matrix(0.619235,0,0,0.619235,549.847,-81.4599)">
            <path d="M330.924,601.658L330.924,630.358L221.275,630.358L221.275,520.709L330.924,520.709L330.924,549.409" style="fill:none;stroke:black;stroke-width:6px;stroke-linecap:square;stroke-miterlimit:1.5;"/>
        </g>
        <g transform="matrix(0.395573,0,0,0.395573,618.324,93.2298)">
            <g transform="matrix(78.2601,0,0,78.2601,395.988,506.858)">
                <path d="M0.138,-0.607L0.138,-0.005L0.255,-0.005L0.255,-0.248L0.607,-0.248L0.607,-0.365L0.255,-0.365L0.255,-0.49L0.607,-0.49L0.607,-0.607L0.138,-0.607Z" style="fill-rule:nonzero;"/>
            </g>
            <g transform="matrix(78.2601,0,0,78.2601,452.727,506.858)">
                <rect x="0.138" y="-0.607" width="0.117" height="0.602" style="fill-rule:nonzero;"/>
            </g>
            <g transform="matrix(78.2601,0,0,78.2601,481.84,506.858)">
                <path d="M0.15,-0.607L0.15,-0.49L0.453,-0.49L0.138,-0.122L0.138,-0.005L0.615,-0.005L0.615,-0.122L0.311,-0.122L0.627,-0.49L0.627,-0.607L0.15,-0.607Z" style="fill-rule:nonzero;"/>
            </g>
            <g transform="matrix(78.2601,0,0,78.2601,535.448,506.858)">
                <path d="M0.138,-0.278L0.138,-0.205C0.138,-0.205 0.143,0.01 0.382,0.01C0.621,0.01 0.625,-0.205 0.625,-0.205L0.625,-0.607L0.508,-0.607L0.508,-0.232C0.508,-0.232 0.512,-0.107 0.382,-0.107C0.251,-0.107 0.255,-0.232 0.255,-0.232L0.255,-0.278L0.138,-0.278Z" style="fill-rule:nonzero;"/>
            </g>
            <g transform="matrix(78.2601,0,0,78.2601,592.03,506.858)">
                <path d="M0.418,-0.49L0.506,-0.49C0.506,-0.49 0.668,-0.481 0.668,-0.306C0.668,-0.132 0.506,-0.122 0.506,-0.122L0.418,-0.122C0.418,-0.122 0.256,-0.132 0.256,-0.306C0.256,-0.481 0.418,-0.49 0.418,-0.49ZM0.413,-0.607C0.413,-0.607 0.138,-0.599 0.138,-0.306C0.138,-0.014 0.413,-0.005 0.413,-0.005L0.511,-0.005C0.511,-0.005 0.786,-0.014 0.786,-0.306C0.786,-0.599 0.511,-0.607 0.511,-0.607L0.413,-0.607Z" style="fill-rule:nonzero;"/>
            </g>
            <g transform="matrix(78.2601,0,0,78.2601,660.351,506.858)">
                <path d="M0.25,-0.477L0.25,-0.365L0.138,-0.365L0.138,-0.248L0.25,-0.248L0.25,-0.136L0.367,-0.136L0.367,-0.248L0.479,-0.248L0.479,-0.365L0.367,-0.365L0.367,-0.477L0.25,-0.477Z" style="fill:none;fill-rule:nonzero;stroke:black;stroke-width:0.04px;"/>
            </g>
        </g>
        <g transform="matrix(0.6582,0,0,0.6582,624.609,-168.479)">
            <g transform="matrix(30.4616,0,0,30.4616,231.711,660)">
                <path d="M0.689,-0.02C0.691,-0.007 0.702,0.002 0.714,0.002C0.728,0.002 0.739,-0.009 0.739,-0.023C0.739,-0.027 0.738,-0.037 0.728,-0.103C0.721,-0.148 0.689,-0.368 0.657,-0.525C0.655,-0.537 0.643,-0.545 0.631,-0.545C0.622,-0.545 0.614,-0.542 0.608,-0.532C0.539,-0.403 0.464,-0.235 0.407,-0.104C0.342,-0.237 0.263,-0.4 0.208,-0.512C0.204,-0.521 0.197,-0.531 0.192,-0.536C0.188,-0.541 0.182,-0.544 0.174,-0.544C0.162,-0.544 0.15,-0.535 0.148,-0.523C0.123,-0.38 0.093,-0.142 0.083,-0.053L0.08,-0.024C0.08,-0.009 0.091,0.002 0.104,0.002C0.117,0.002 0.129,-0.008 0.13,-0.02C0.141,-0.119 0.165,-0.305 0.187,-0.446C0.247,-0.321 0.326,-0.154 0.385,-0.031C0.389,-0.022 0.399,-0.017 0.409,-0.017C0.42,-0.017 0.427,-0.024 0.431,-0.034C0.481,-0.155 0.553,-0.312 0.62,-0.447C0.647,-0.303 0.674,-0.134 0.689,-0.02Z" style="fill-rule:nonzero;"/>
            </g>
            <g transform="matrix(30.4616,0,0,30.4616,256.689,660)">
                <path d="M0.153,-0.025L0.153,-0.51C0.153,-0.524 0.142,-0.535 0.128,-0.535C0.115,-0.535 0.103,-0.524 0.103,-0.51L0.103,-0.025C0.103,-0.012 0.115,-0 0.128,-0C0.142,-0 0.153,-0.011 0.153,-0.025Z" style="fill-rule:nonzero;"/>
            </g>
            <g transform="matrix(30.4616,0,0,30.4616,264.487,660)">
                <path d="M0.334,-0.494C0.382,-0.494 0.428,-0.484 0.458,-0.468C0.462,-0.466 0.466,-0.465 0.47,-0.465C0.485,-0.465 0.495,-0.478 0.495,-0.49C0.495,-0.499 0.49,-0.507 0.482,-0.512C0.446,-0.532 0.392,-0.544 0.334,-0.544C0.188,-0.544 0.061,-0.432 0.061,-0.264C0.061,-0.11 0.163,0.009 0.34,0.009C0.396,0.009 0.446,-0.003 0.486,-0.024C0.495,-0.028 0.5,-0.037 0.5,-0.046C0.5,-0.061 0.489,-0.071 0.475,-0.071C0.471,-0.071 0.467,-0.07 0.464,-0.068C0.43,-0.051 0.388,-0.041 0.34,-0.041C0.195,-0.041 0.111,-0.138 0.111,-0.264C0.111,-0.402 0.214,-0.494 0.334,-0.494Z" style="fill-rule:nonzero;"/>
            </g>
            <g transform="matrix(30.4616,0,0,30.4616,281.729,660)">
                <path d="M0.483,-0.025C0.483,-0.012 0.495,-0 0.508,-0C0.522,-0 0.533,-0.011 0.533,-0.025L0.533,-0.51C0.533,-0.524 0.522,-0.535 0.508,-0.535C0.495,-0.535 0.483,-0.524 0.483,-0.51L0.483,-0.31L0.148,-0.31L0.148,-0.51C0.148,-0.524 0.137,-0.535 0.123,-0.535C0.11,-0.535 0.098,-0.524 0.098,-0.51L0.098,-0.025C0.098,-0.012 0.11,-0 0.123,-0C0.137,-0 0.148,-0.011 0.148,-0.025L0.148,-0.26L0.483,-0.26L0.483,-0.025Z" style="fill-rule:nonzero;"/>
            </g>
            <g transform="matrix(30.4616,0,0,30.4616,300.95,660)">
                <path d="M0.482,-0.016C0.486,-0.006 0.495,-0 0.505,-0C0.518,-0 0.53,-0.012 0.53,-0.025C0.53,-0.028 0.529,-0.033 0.519,-0.057C0.48,-0.156 0.382,-0.375 0.31,-0.53C0.306,-0.539 0.296,-0.544 0.286,-0.544L0.282,-0.544C0.272,-0.544 0.262,-0.538 0.258,-0.529C0.189,-0.376 0.103,-0.178 0.058,-0.057C0.049,-0.034 0.048,-0.03 0.048,-0.026C0.048,-0.011 0.06,-0 0.072,-0C0.082,-0 0.093,-0.006 0.097,-0.017C0.11,-0.053 0.127,-0.097 0.146,-0.145L0.428,-0.145C0.449,-0.097 0.468,-0.052 0.482,-0.016ZM0.284,-0.465C0.324,-0.381 0.368,-0.284 0.407,-0.195L0.167,-0.195C0.204,-0.284 0.247,-0.38 0.284,-0.465Z" style="fill-rule:nonzero;"/>
            </g>
            <g transform="matrix(30.4616,0,0,30.4616,318.922,660)">
                <path d="M0.138,-0L0.409,-0C0.423,-0 0.434,-0.012 0.434,-0.025C0.434,-0.039 0.423,-0.05 0.409,-0.05L0.163,-0.05L0.163,-0.241L0.291,-0.326C0.298,-0.331 0.302,-0.339 0.302,-0.348C0.302,-0.359 0.291,-0.372 0.276,-0.372C0.272,-0.372 0.267,-0.371 0.263,-0.368L0.163,-0.302L0.163,-0.51C0.163,-0.524 0.152,-0.535 0.138,-0.535C0.125,-0.535 0.113,-0.524 0.113,-0.51L0.113,-0.269L0.048,-0.226C0.041,-0.221 0.037,-0.213 0.037,-0.204C0.037,-0.193 0.049,-0.18 0.063,-0.18C0.067,-0.18 0.072,-0.181 0.076,-0.184L0.113,-0.208L0.113,-0.025C0.113,-0.012 0.125,-0 0.138,-0Z" style="fill-rule:nonzero;"/>
            </g>
            <g transform="matrix(30.4616,0,0,30.4616,342.134,660)">
                <path d="M0.326,-0.635C0.354,-0.656 0.402,-0.686 0.447,-0.713C0.454,-0.717 0.458,-0.725 0.458,-0.733C0.458,-0.744 0.449,-0.755 0.435,-0.755C0.432,-0.755 0.428,-0.754 0.425,-0.752C0.38,-0.722 0.33,-0.692 0.3,-0.672C0.294,-0.668 0.291,-0.661 0.291,-0.654C0.291,-0.642 0.3,-0.631 0.313,-0.631C0.317,-0.631 0.322,-0.632 0.326,-0.635ZM0.334,-0.494C0.382,-0.494 0.428,-0.484 0.458,-0.468C0.462,-0.466 0.466,-0.465 0.47,-0.465C0.485,-0.465 0.495,-0.478 0.495,-0.49C0.495,-0.499 0.49,-0.507 0.482,-0.512C0.446,-0.532 0.392,-0.544 0.334,-0.544C0.188,-0.544 0.061,-0.432 0.061,-0.264C0.061,-0.11 0.163,0.009 0.34,0.009C0.396,0.009 0.446,-0.003 0.486,-0.024C0.495,-0.028 0.5,-0.037 0.5,-0.046C0.5,-0.061 0.489,-0.071 0.475,-0.071C0.471,-0.071 0.467,-0.07 0.464,-0.068C0.43,-0.051 0.388,-0.041 0.34,-0.041C0.195,-0.041 0.111,-0.138 0.111,-0.264C0.111,-0.402 0.214,-0.494 0.334,-0.494Z" style="fill-rule:nonzero;"/>
            </g>
            <g transform="matrix(30.4616,0,0,30.4616,359.375,660)">
                <path d="M0.608,-0.01C0.615,0.005 0.625,0.01 0.633,0.01C0.643,0.01 0.653,0.004 0.657,-0.005C0.694,-0.089 0.789,-0.359 0.827,-0.488C0.83,-0.498 0.832,-0.506 0.832,-0.509C0.832,-0.522 0.819,-0.534 0.807,-0.534C0.796,-0.534 0.786,-0.527 0.783,-0.516C0.748,-0.396 0.676,-0.189 0.632,-0.077C0.588,-0.184 0.511,-0.393 0.477,-0.501C0.47,-0.522 0.462,-0.531 0.449,-0.531C0.438,-0.531 0.428,-0.524 0.425,-0.513C0.389,-0.395 0.31,-0.191 0.263,-0.079C0.22,-0.188 0.143,-0.411 0.115,-0.516C0.112,-0.527 0.102,-0.534 0.091,-0.534C0.077,-0.534 0.066,-0.522 0.066,-0.509C0.066,-0.505 0.068,-0.497 0.076,-0.469C0.103,-0.376 0.202,-0.086 0.237,-0.011C0.241,-0.002 0.25,0.009 0.263,0.009C0.273,0.009 0.283,0.003 0.287,-0.006C0.319,-0.077 0.399,-0.279 0.449,-0.425C0.495,-0.288 0.575,-0.075 0.608,-0.01Z" style="fill-rule:nonzero;"/>
            </g>
            <g transform="matrix(30.4616,0,0,30.4616,386.699,660)">
                <path d="M0.153,-0.025L0.153,-0.51C0.153,-0.524 0.142,-0.535 0.128,-0.535C0.115,-0.535 0.103,-0.524 0.103,-0.51L0.103,-0.025C0.103,-0.012 0.115,-0 0.128,-0C0.142,-0 0.153,-0.011 0.153,-0.025Z" style="fill-rule:nonzero;"/>
            </g>
            <g transform="matrix(30.4616,0,0,30.4616,394.497,660)">
                <path d="M0.46,-0.009C0.465,-0.003 0.472,-0 0.479,-0C0.493,-0 0.504,-0.013 0.504,-0.025C0.504,-0.031 0.502,-0.037 0.498,-0.041C0.447,-0.099 0.341,-0.229 0.28,-0.302C0.348,-0.365 0.425,-0.438 0.477,-0.493C0.481,-0.498 0.484,-0.504 0.484,-0.51C0.484,-0.523 0.472,-0.535 0.459,-0.535C0.452,-0.535 0.446,-0.532 0.441,-0.527C0.36,-0.443 0.223,-0.318 0.148,-0.249L0.148,-0.51C0.148,-0.524 0.137,-0.535 0.123,-0.535C0.11,-0.535 0.098,-0.524 0.098,-0.51L0.098,-0.025C0.098,-0.012 0.11,-0 0.123,-0C0.137,-0 0.148,-0.011 0.148,-0.025L0.148,-0.182C0.168,-0.201 0.203,-0.232 0.243,-0.269C0.304,-0.195 0.409,-0.067 0.46,-0.009Z" style="fill-rule:nonzero;"/>
            </g>
        </g>
    </g>
</svg>
