<?xml version="1.0" encoding="UTF-8" standalone="no"?><!DOCTYPE svg PUBLIC "-//W3C//DTD SVG 1.1//EN" "http://www.w3.org/Graphics/SVG/1.1/DTD/svg11.dtd"><svg width="100%" height="100%" viewBox="0 0 12321 12280" version="1.1" xmlns="http://www.w3.org/2000/svg" xmlns:xlink="http://www.w3.org/1999/xlink" xml:space="preserve" xmlns:serif="http://www.serif.com/" style="fill-rule:evenodd;clip-rule:evenodd;stroke-linejoin:round;stroke-miterlimit:2;"><g><path d="M12320.8,2454.83l0,7364.49c0,1354.86 -1099.97,2454.83 -2454.83,2454.83l-7411.2,-0c-1354.86,-0 -2454.83,-1099.97 -2454.83,-2454.83l0,-7364.49c0,-1354.86 1099.97,-2454.83 2454.83,-2454.83l7411.2,0c1354.86,0 2454.83,1099.97 2454.83,2454.83Z"/><path d="M7587.33,9691.29l0,784.529l-2867.87,-0l-0,-2922.66l-2913.86,0l0,-2873.19l1678.31,-0c273.404,-917.059 858.125,-1246.48 858.125,-1246.48c-0,-0 -51.009,61.617 -117.95,171.558c-343.117,554.909 -313.642,1074.92 -313.642,1074.92c2.329,439.771 168.296,952.008 696.783,1461.33c0,0 -9.454,-386.9 531.1,-817.642c0,0 -485.658,-148.662 -736.516,-643.691l317.65,-0l-0,-2873.18l2867.87,2.505l0,2111.97c1075.03,-666.541 641.117,-1826.23 641.117,-1826.23c55.329,105.825 99.529,208.988 133.904,309.321c68.367,209.213 127.313,508.034 75.754,844.367c-91.65,537.517 -436.071,930.742 -657.587,1134.58c-59.467,53.159 -123.75,105.925 -193.188,158.125c-287.708,216.296 -663.879,422.9 -1152.19,607.613c-3926.72,1485.34 1135.07,4542.25 1152.19,4542.25l0,-0.004Zm1352.4,-5011.33l1568.28,0l1.946,2873.19l-2922.62,-0l0,2137.9c-16.937,-26.754 -2979.59,-2381.46 -950.796,-3370.75c1057.82,-515.821 1950.11,-976.288 2303.19,-1640.34Zm-2781.95,-1544.84c-442.842,-0 -802.375,359.533 -802.375,802.379c0,442.846 359.533,802.379 802.375,802.379c442.846,-0 802.379,-359.533 802.379,-802.379c0,-442.846 -359.533,-802.379 -802.379,-802.379Z" style="fill:#fff;"/></g></svg>