<?xml version="1.0" encoding="UTF-8" standalone="no"?><!DOCTYPE svg PUBLIC "-//W3C//DTD SVG 1.1//EN" "http://www.w3.org/Graphics/SVG/1.1/DTD/svg11.dtd"><svg width="100%" height="100%" viewBox="0 0 2957 2947" version="1.1" xmlns="http://www.w3.org/2000/svg" xmlns:xlink="http://www.w3.org/1999/xlink" xml:space="preserve" xmlns:serif="http://www.serif.com/" style="fill-rule:evenodd;clip-rule:evenodd;stroke-linejoin:round;stroke-miterlimit:2;"><g><path d="M2955.74,737.976l0,1471.88c0,406.175 -329.762,735.938 -735.937,735.938l-1483.87,-0c-406.175,-0 -735.938,-329.763 -735.938,-735.938l-0,-1471.88c-0,-406.175 329.763,-735.937 735.938,-735.937l1483.87,-0c406.175,-0 735.937,329.762 735.937,735.937Z"/><path d="M1820.96,2325.91l0,188.287l-688.288,0l-0,-701.439l-699.327,0l0,-689.565l402.795,0c65.617,-220.094 205.95,-299.154 205.95,-299.154c-0,-0 -12.242,14.788 -28.308,41.174c-82.348,133.178 -75.274,257.98 -75.274,257.98c0.559,105.545 40.391,228.482 167.228,350.72c-0,-0 -2.269,-92.856 127.464,-196.234c0,-0 -116.558,-35.679 -176.764,-154.486l76.236,0l-0,-689.564l688.288,0.601l0,506.873c258.008,-159.97 153.868,-438.294 153.868,-438.294c13.279,25.398 23.887,50.157 32.137,74.237c16.408,50.211 30.555,121.928 18.181,202.648c-21.996,129.004 -104.657,223.378 -157.821,272.3c-14.272,12.758 -29.7,25.422 -46.365,37.95c-69.05,51.911 -159.331,101.496 -276.525,145.827c-942.413,356.482 272.416,1090.14 276.525,1090.14Zm324.575,-1202.72l376.387,0l0.467,689.565l-701.429,0l0,513.097c-4.065,-6.421 -715.102,-571.55 -228.191,-808.981c253.877,-123.797 468.027,-234.309 552.766,-393.681Zm-667.668,-370.762c-106.282,0 -192.57,86.288 -192.57,192.571c-0,106.283 86.288,192.571 192.57,192.571c106.283,-0 192.571,-86.288 192.571,-192.571c-0,-106.283 -86.288,-192.571 -192.571,-192.571Z" style="fill:#fff;"/></g></svg>