<?xml version="1.0" encoding="UTF-8" standalone="no"?>
<!DOCTYPE svg PUBLIC "-//W3C//DTD SVG 1.1//EN" "http://www.w3.org/Graphics/SVG/1.1/DTD/svg11.dtd">
<svg width="100%" height="100%" viewBox="0 0 415 301" version="1.1" xmlns="http://www.w3.org/2000/svg" xmlns:xlink="http://www.w3.org/1999/xlink" xml:space="preserve" xmlns:serif="http://www.serif.com/" style="fill-rule:evenodd;clip-rule:evenodd;stroke-linejoin:round;stroke-miterlimit:2;">
    <g transform="matrix(1,0,0,1,-197.838,-223.226)">
        <path d="M299.932,382.837C294.978,385.958 290.069,389.123 285.203,392.332C279.494,396.098 274.696,397.981 270.809,397.981L269.716,397.981C267.773,397.738 266.194,396.705 264.979,394.883C263.764,393.061 263.278,390.814 263.521,388.142C262.55,389.114 260.97,390.45 258.784,392.15C256.598,393.851 254.29,395.551 251.861,397.252C249.431,398.952 247.002,400.41 244.573,401.625C242.143,402.839 240.2,403.447 238.742,403.447C234.612,403.447 232.183,401.503 231.454,397.616C231.211,395.43 231.576,392.879 232.547,389.964C233.519,387.049 234.673,384.316 236.009,381.765C237.345,379.214 238.621,376.906 239.835,374.841C241.05,372.776 241.779,371.622 242.022,371.38L238.742,373.93C230.968,380.247 224.956,385.652 220.704,390.146C216.453,394.64 213.295,398.345 211.23,401.26C209.165,404.175 207.708,406.301 206.857,407.637C206.007,408.973 205.217,409.641 204.489,409.641C204.003,409.641 203.517,409.52 203.031,409.277C202.545,409.034 201.938,408.67 201.209,408.184C200.237,407.698 199.387,407.151 198.658,406.544C197.929,405.937 197.687,405.147 197.929,404.175C197.929,403.204 198.962,400.835 201.027,397.07C203.092,393.304 205.4,389.235 207.95,384.862C210.501,380.49 212.991,376.481 215.421,372.837C217.85,369.193 219.429,367.128 220.158,366.642C220.887,365.914 221.737,365.549 222.709,365.549C223.68,365.549 224.652,365.914 225.624,366.642C226.596,367.371 227.081,368.221 227.081,369.193C227.081,370.165 226.96,371.137 226.717,372.108C228.175,370.894 230.179,369.254 232.73,367.189C235.28,365.124 237.953,363.059 240.746,360.994C243.54,358.929 246.152,357.168 248.581,355.71C251.01,354.253 252.954,353.524 254.411,353.524C257.569,353.524 259.391,355.103 259.877,358.261C260.12,359.476 259.817,360.812 258.966,362.27C258.116,363.727 256.355,366.521 253.683,370.651L246.759,381.036C245.058,383.587 243.844,385.652 243.115,387.231C242.386,388.81 241.9,390.085 241.657,391.057C241.414,392.029 241.05,392.879 240.564,393.608C244.208,391.179 247.731,388.688 251.132,386.138C254.533,383.587 257.691,381.279 260.606,379.214C263.521,377.149 266.011,375.449 268.076,374.113C270.141,372.776 271.66,372.108 272.631,372.108C274.332,372.108 275.668,372.716 276.64,373.93C277.611,375.145 277.976,376.481 277.733,377.939C277.733,378.425 277.429,379.275 276.822,380.49C276.215,381.704 275.607,382.858 275,383.951C274.393,385.044 273.846,386.077 273.36,387.049C272.874,388.02 272.631,388.628 272.631,388.871L273.36,388.506C273.846,388.263 275,387.656 276.822,386.684C278.644,385.713 281.377,384.133 285.021,381.947C288.665,379.761 293.766,376.724 300.326,372.837C302.129,373.367 303.503,373.933 304.45,374.532C309.644,365.199 315.254,355.827 321.279,346.418C332.089,329.534 343.811,313.744 356.443,299.046C360.416,294.423 364.462,289.957 368.58,285.646C374.404,277.761 386.585,265.207 394.72,250.744C408.265,226.659 412.868,225.531 412.868,225.531C414.498,223.935 416.259,223.167 418.151,223.229C419.728,223.281 421.045,224.011 422.104,225.421C423.163,226.83 423.345,228.486 422.652,230.387L412.499,244.078C410.769,246.41 408.962,248.931 407.054,251.611C417.741,243.952 428.565,237.84 439.526,233.272C442.441,232.058 445.539,231.025 448.818,230.175C452.098,229.325 455.195,228.9 458.11,228.9C461.754,228.9 464.973,229.628 467.767,231.086C470.561,232.544 472.686,235.094 474.144,238.738C474.873,240.439 475.359,242.807 475.602,245.844C475.844,248.881 475.905,251.917 475.784,254.954C475.662,257.991 475.419,260.724 475.055,263.153C474.691,265.582 474.265,267.161 473.78,267.89C472.322,268.619 471.107,268.983 470.136,268.983C467.706,268.983 466.613,267.101 466.856,263.335C467.099,259.57 467.22,255.501 467.22,251.128C467.22,246.026 466.613,242.504 465.398,240.56C464.184,238.617 460.904,237.645 455.56,237.645C448.029,238.617 438.554,242.564 427.136,249.488C415.719,256.412 403.572,265.704 390.697,277.365C377.821,289.025 364.885,302.812 351.888,318.724C338.891,334.636 326.927,351.945 315.995,370.651C306.52,386.927 298.382,403.629 291.58,420.756C284.778,437.882 279.676,453.43 276.275,467.399C272.874,481.367 271.538,492.846 272.267,501.834C272.996,510.823 276.154,515.317 281.741,515.317L282.47,515.317C287.329,514.831 294.07,511.369 302.694,504.932C311.318,498.494 320.793,490.599 331.117,481.246C341.442,471.893 352.07,461.811 363.002,451.001C373.934,440.19 384.016,430.291 393.247,421.302C402.479,412.314 410.435,404.904 417.115,399.074C423.796,393.243 427.987,390.693 429.687,391.421C431.631,392.393 432.481,393.547 432.238,394.883C431.995,396.219 431.206,397.616 429.869,399.074C428.533,400.531 426.894,402.111 424.95,403.811L419.12,408.913C401.386,425.432 385.413,440.737 371.201,454.827C356.99,468.917 344.236,481.124 332.939,491.449C321.643,501.774 311.743,509.79 303.241,515.499C294.738,521.208 287.45,524.063 281.377,524.063L281.012,524.063C273.239,523.82 267.955,520.176 265.161,513.131C262.367,506.086 261.639,496.733 262.975,485.072C264.311,473.411 267.59,459.928 272.813,444.624C278.037,429.319 284.717,413.346 292.855,396.705C295.112,392.092 297.47,387.469 299.932,382.837ZM526.591,391.348C525.452,392.15 524.368,392.903 523.338,393.608C518.722,396.766 514.896,399.317 511.859,401.26C508.823,403.204 506.393,404.54 504.571,405.269C502.749,405.997 501.109,406.362 499.652,406.362L498.194,406.362C494.55,405.633 492.85,403.386 493.093,399.62C493.336,395.855 494.368,391.786 496.19,387.413C498.012,383.04 500.259,378.971 502.931,375.206C505.604,371.44 507.547,369.315 508.762,368.829C509.248,368.586 509.855,368.464 510.584,368.464C513.013,368.464 514.228,369.679 514.228,372.108C514.228,373.566 513.378,375.327 511.677,377.392C509.976,379.457 507.79,383.162 505.118,388.506C504.632,389.721 504.025,391.3 503.296,393.243C502.567,395.187 502.203,396.402 502.203,396.887C502.203,397.373 504.025,396.402 507.669,393.972C511.313,391.543 515.321,388.749 519.694,385.591C524.067,382.433 528.136,379.518 531.901,376.846L537.549,372.837C537.571,372.842 537.592,372.847 537.613,372.852L547.024,357.168C552.125,348.665 557.348,339.98 562.693,331.113C568.037,322.246 573.26,313.622 578.362,305.241C583.464,296.86 588.019,289.329 592.027,282.648C596.035,275.968 599.315,270.623 601.866,266.615L605.692,260.602C606.421,259.873 607.271,259.509 608.243,259.509C609.457,259.509 610.551,260.116 611.522,261.331C612.494,262.546 612.737,263.882 612.251,265.339C612.008,265.825 610.308,268.74 607.15,274.085C603.991,279.43 600.044,286.049 595.307,293.945C590.569,301.84 585.407,310.343 579.82,319.453C574.232,328.563 569.07,337.065 564.333,344.961C559.595,352.856 555.648,359.476 552.49,364.82C549.332,370.165 547.631,372.959 547.388,373.202C548.603,372.473 550.243,371.805 552.307,371.197C554.372,370.59 556.134,370.286 557.591,370.286C560.264,370.286 562.511,370.833 564.333,371.926C566.155,373.019 567.43,374.295 568.159,375.752C568.888,377.21 569.131,378.668 568.888,380.125C568.645,381.583 567.794,382.554 566.337,383.04C566.094,383.283 565.608,383.405 564.879,383.405C563.422,383.405 562.207,382.676 561.235,381.218C560.264,379.761 558.806,379.032 556.862,379.032L556.134,379.032C553.461,379.518 550.728,381.036 547.935,383.587C545.141,386.138 543.137,388.749 541.922,391.421C541.436,392.393 541.376,393.001 541.74,393.243C542.104,393.486 543.015,393.608 544.473,393.608C547.145,393.608 550.425,392.94 554.312,391.604C558.199,390.268 562.146,388.688 566.155,386.866C570.163,385.044 574.05,383.162 577.815,381.218C581.581,379.275 584.557,377.696 586.743,376.481C587.958,375.752 588.99,375.206 589.841,374.841C590.691,374.477 591.359,374.052 591.845,373.566L593.302,372.837C595.246,373.566 596.521,374.355 597.129,375.206C597.736,376.056 597.979,376.906 597.857,377.757C597.736,378.607 597.432,379.396 596.946,380.125C596.461,380.854 595.975,381.34 595.489,381.583C592.574,383.283 588.869,385.348 584.375,387.777C579.88,390.207 575.204,392.454 570.345,394.519C565.487,396.584 560.749,398.345 556.134,399.803C551.518,401.26 547.631,401.989 544.473,401.989C542.529,401.989 541.193,401.868 540.465,401.625C537.306,400.896 535.484,399.924 534.999,398.709C534.513,397.495 534.027,396.887 533.541,396.887C533.298,396.887 532.205,398.467 530.261,401.625C529.047,403.325 528.075,404.844 527.346,406.18C526.617,407.516 525.281,408.062 523.338,407.819C520.908,407.091 519.815,405.633 520.058,403.447C520.058,402.961 521.273,400.592 523.702,396.341C524.565,394.83 525.528,393.166 526.591,391.348ZM463.576,369.922C463.09,371.38 462.544,372.351 461.937,372.837C461.329,373.323 460.175,374.659 458.475,376.846C457.26,378.303 456.531,379.214 456.288,379.579C456.045,379.943 455.56,380.732 454.831,381.947L456.653,380.125C457.139,379.639 457.564,379.153 457.928,378.668C458.293,378.182 458.718,377.696 459.204,377.21C461.633,374.538 463.516,372.837 464.852,372.108C466.188,371.38 467.463,371.015 468.678,371.015C470.864,371.258 472.2,372.048 472.686,373.384C473.172,374.72 473.354,376.299 473.233,378.121C473.111,379.943 472.869,381.886 472.504,383.951C472.14,386.016 472.2,387.899 472.686,389.599C472.686,390.328 473.051,390.693 473.78,390.693C475.723,390.693 478.699,388.567 482.707,384.316C486.716,380.064 490.056,375.509 492.728,370.651C494.429,367.493 496.251,365.914 498.194,365.914C501.109,366.156 502.385,367.493 502.02,369.922C501.656,372.351 500.502,375.145 498.559,378.303C496.615,381.461 494.247,384.619 491.453,387.777C488.659,390.936 486.169,393.365 483.983,395.065C480.339,397.738 476.938,399.074 473.78,399.074C470.378,399.074 467.828,397.92 466.127,395.612C464.427,393.304 463.698,390.571 463.941,387.413C463.941,386.441 463.819,385.955 463.576,385.955C463.333,385.955 461.754,387.535 458.839,390.693C452.523,397.495 448.029,401.503 445.356,402.718C443.899,403.204 442.927,403.447 442.441,403.447C441.712,403.447 440.862,403.204 439.89,402.718C437.461,401.017 436.732,398.588 437.704,395.43C438.19,393.972 439.283,391.604 440.984,388.324C442.684,385.044 444.628,381.704 446.814,378.303C449,374.902 451.248,371.865 453.555,369.193C455.863,366.521 457.746,365.185 459.204,365.185C460.418,365.185 461.572,365.671 462.665,366.642C463.759,367.614 464.062,368.707 463.576,369.922ZM518.965,360.448C517.264,359.719 516.232,358.686 515.868,357.35C515.503,356.014 515.928,354.739 517.143,353.524C518.115,352.552 519.208,352.066 520.423,352.066C522.852,352.066 524.188,353.16 524.431,355.346C524.917,356.804 524.674,358.079 523.702,359.172C522.73,360.265 521.637,360.812 520.423,360.812C520.18,360.812 519.937,360.751 519.694,360.63C519.451,360.508 519.208,360.448 518.965,360.448Z"/>
    </g>
</svg>
